<svg width="1442" height="815" viewBox="0 0 1442 815" fill="none" xmlns="http://www.w3.org/2000/svg">
<path fill-rule="evenodd" clip-rule="evenodd" d="M1093.9 287.301C1207.31 231.014 1321.78 191.969 1442 163.553V165.608C1321.74 194.064 1207.26 233.17 1093.85 289.557C1093.67 297.111 1093.28 304.825 1092.66 312.7C1084.93 411.484 1048.21 535.998 984.392 636.269C920.575 736.531 829.526 812.735 713.09 814.446C680.989 814.918 659.347 809.005 646.335 798.006C633.257 786.953 629.092 770.94 631.532 751.76C633.969 732.61 642.996 710.175 656.46 686.005C669.932 661.822 687.885 635.832 708.245 609.562C748.964 557.019 799.36 503.284 842.923 460.512C886.459 417.766 923.252 385.889 936.759 377.119C988.547 343.492 1040.1 314.098 1091.88 288.305C1093.12 227.095 1080.01 176.577 1056.43 135.958C1029.81 90.0959 989.794 56.7851 941.861 34.9453C845.965 -8.74787 718.405 -6.50037 603.33 33.0723C339.593 123.767 147.206 304.924 0 523.398V519.823C147.167 302.189 339.412 121.715 602.68 31.181C718.098 -8.50967 846.208 -10.8348 942.69 33.1253C990.946 55.1122 1031.3 88.6844 1058.16 134.954C1081.81 175.702 1094.97 226.246 1093.9 287.301ZM1091.82 290.566C1040.43 316.213 989.254 345.418 937.848 378.797C924.534 387.441 887.876 419.178 844.324 461.939C800.799 504.674 750.471 558.34 709.826 610.787C689.503 637.01 671.614 662.912 658.207 686.979C644.792 711.06 635.905 733.233 633.516 752.013C631.13 770.763 635.228 786 647.626 796.479C660.088 807.013 681.135 812.915 713.06 812.446C828.542 810.75 919.066 735.176 982.705 635.195C1046.34 535.222 1082.96 411.028 1090.67 312.544C1091.26 305.071 1091.64 297.746 1091.82 290.566Z" fill="#F77E3A"/>
</svg>
