<svg width="155" height="79" viewBox="0 0 155 79" fill="none" xmlns="http://www.w3.org/2000/svg">
<g clip-path="url(#clip0_12_355)">
<path d="M84.9123 9.03859C80.0336 6.59647 76.1462 4.90909 70.2717 4.44558C65.334 4.05599 60.3221 4.11355 55.4014 4.53361C41.1968 5.74625 27.9558 11.3607 17.8857 18.3879C7.15286 25.8774 0.315667 36.1001 1.61169 47.0044C3.17037 60.1185 16.6702 69.6375 33.4351 73.8922C55.2919 79.4391 81.5164 76.7419 102.532 70.6542C121.651 65.1161 144.905 54.5887 151.394 39.5957C157.047 26.5346 141.92 14.1039 127.22 7.90584C115.038 2.7693 100.705 0.480825 86.9341 3.43797C76.7767 5.61918 66.5786 9.22926 58.3327 13.9913C49.0456 19.3546 42.7668 26.2817 36.0679 33.2015" stroke="black" stroke-width="1.2047" stroke-linecap="round"/>
</g>
<defs>
<clipPath id="clip0_12_355">
<rect width="153.27" height="76.611" fill="white" transform="translate(0.757812 0.38855) rotate(0.566828)"/>
</clipPath>
</defs>
</svg>
